<?xml version="1.0" encoding="UTF-8" standalone="no"?>
<!DOCTYPE svg PUBLIC "-//W3C//DTD SVG 1.1//EN"
 "http://www.w3.org/Graphics/SVG/1.1/DTD/svg11.dtd">
<!-- Generated by graphviz version 13.1.0 (20250701.0955)
 -->
<!-- Title: tpl0501_basic_init Pages: 1 -->
<svg width="276pt" height="254pt"
 viewBox="0.00 0.00 276.00 254.00" xmlns="http://www.w3.org/2000/svg" xmlns:xlink="http://www.w3.org/1999/xlink">
<g id="graph0" class="graph" transform="scale(1 1) rotate(0) translate(4 250)">
<title>tpl0501_basic_init</title>
<!-- Node1 -->
<g id="Node000001" class="node">
<title>Node1</title>
<g id="a_Node000001"><a xlink:title="basic example init">
<polygon fill="#999999" stroke="#666666" points="94,-136 0,-136 0,-116 94,-116 94,-136"/>
<text xml:space="preserve" text-anchor="middle" x="47" y="-122.5" font-family="Helvetica,sans-Serif" font-size="10.00">tpl0501_basic_init</text>
</a>
</g>
</g>
<!-- Node2 -->
<g id="Node000002" class="node">
<title>Node2</title>
<g id="a_Node000002"><a xlink:href="group__tpl0501__base__driver.html#gaa8cd383318224c682e3922ad4afd3194" target="_top" xlink:title="initialize the chip">
<polygon fill="white" stroke="#666666" points="231.5,-246 166,-246 166,-226 231.5,-226 231.5,-246"/>
<text xml:space="preserve" text-anchor="middle" x="198.75" y="-232.5" font-family="Helvetica,sans-Serif" font-size="10.00">tpl0501_init</text>
</a>
</g>
</g>
<!-- Node1&#45;&gt;Node2 -->
<g id="edge1_Node000001_Node000002" class="edge">
<title>Node1&#45;&gt;Node2</title>
<g id="a_edge1_Node000001_Node000002"><a xlink:title=" ">
<path fill="none" stroke="#63b8ff" d="M54.5,-136.48C66.83,-155.47 95.49,-195.58 130,-217 137.43,-221.61 146.01,-225.13 154.51,-227.81"/>
<polygon fill="#63b8ff" stroke="#63b8ff" points="153.5,-231.16 164.07,-230.46 155.37,-224.42 153.5,-231.16"/>
</a>
</g>
</g>
<!-- Node3 -->
<g id="Node000003" class="node">
<title>Node3</title>
<g id="a_Node000003"><a xlink:href="group__tpl0501__interface__driver.html#gaa11864475627d8cca89fbcd56bc520a8" target="_top" xlink:title="interface print format data">
<polygon fill="white" stroke="#666666" points="259.62,-208 137.88,-208 137.88,-176 259.62,-176 259.62,-208"/>
<text xml:space="preserve" text-anchor="start" x="145.88" y="-194.5" font-family="Helvetica,sans-Serif" font-size="10.00">tpl0501_interface_debug</text>
<text xml:space="preserve" text-anchor="middle" x="198.75" y="-182.5" font-family="Helvetica,sans-Serif" font-size="10.00">_print</text>
</a>
</g>
</g>
<!-- Node1&#45;&gt;Node3 -->
<g id="edge2_Node000001_Node000003" class="edge">
<title>Node1&#45;&gt;Node3</title>
<g id="a_edge2_Node000001_Node000003"><a xlink:title=" ">
<path fill="none" stroke="#63b8ff" d="M67.26,-136.39C83.7,-145.07 108.09,-157.51 130,-167 133.5,-168.52 137.13,-170.02 140.8,-171.51"/>
<polygon fill="#63b8ff" stroke="#63b8ff" points="139.2,-174.64 149.79,-175.04 141.76,-168.12 139.2,-174.64"/>
</a>
</g>
</g>
<!-- Node4 -->
<g id="Node000004" class="node">
<title>Node4</title>
<g id="a_Node000004"><a xlink:href="group__tpl0501__interface__driver.html#ga11af7c5c0ea0183f2d7e5d1b429d6fb4" target="_top" xlink:title="interface delay ms">
<polygon fill="white" stroke="#666666" points="267.5,-158 130,-158 130,-138 267.5,-138 267.5,-158"/>
<text xml:space="preserve" text-anchor="middle" x="198.75" y="-144.5" font-family="Helvetica,sans-Serif" font-size="10.00">tpl0501_interface_delay_ms</text>
</a>
</g>
</g>
<!-- Node1&#45;&gt;Node4 -->
<g id="edge3_Node000001_Node000004" class="edge">
<title>Node1&#45;&gt;Node4</title>
<g id="a_edge3_Node000001_Node000004"><a xlink:title=" ">
<path fill="none" stroke="#63b8ff" d="M94.15,-132.78C101.89,-133.92 110.11,-135.13 118.41,-136.34"/>
<polygon fill="#63b8ff" stroke="#63b8ff" points="117.83,-139.8 128.23,-137.79 118.85,-132.87 117.83,-139.8"/>
</a>
</g>
</g>
<!-- Node5 -->
<g id="Node000005" class="node">
<title>Node5</title>
<g id="a_Node000005"><a xlink:href="group__tpl0501__interface__driver.html#ga53776d3099415a97bbd761d4d83321d1" target="_top" xlink:title="interface spi bus deinit">
<polygon fill="white" stroke="#666666" points="252.88,-120 144.62,-120 144.62,-88 252.88,-88 252.88,-120"/>
<text xml:space="preserve" text-anchor="start" x="152.62" y="-106.5" font-family="Helvetica,sans-Serif" font-size="10.00">tpl0501_interface_spi</text>
<text xml:space="preserve" text-anchor="middle" x="198.75" y="-94.5" font-family="Helvetica,sans-Serif" font-size="10.00">_deinit</text>
</a>
</g>
</g>
<!-- Node1&#45;&gt;Node5 -->
<g id="edge4_Node000001_Node000005" class="edge">
<title>Node1&#45;&gt;Node5</title>
<g id="a_edge4_Node000001_Node000005"><a xlink:title=" ">
<path fill="none" stroke="#63b8ff" d="M94.15,-119.22C106.38,-117.42 119.82,-115.45 132.84,-113.54"/>
<polygon fill="#63b8ff" stroke="#63b8ff" points="133.26,-117.01 142.65,-112.1 132.24,-110.09 133.26,-117.01"/>
</a>
</g>
</g>
<!-- Node6 -->
<g id="Node000006" class="node">
<title>Node6</title>
<g id="a_Node000006"><a xlink:href="group__tpl0501__interface__driver.html#gafa25048d1a2d8134dd101555d8ab41d2" target="_top" xlink:title="interface spi bus init">
<polygon fill="white" stroke="#666666" points="261.88,-70 135.62,-70 135.62,-50 261.88,-50 261.88,-70"/>
<text xml:space="preserve" text-anchor="middle" x="198.75" y="-56.5" font-family="Helvetica,sans-Serif" font-size="10.00">tpl0501_interface_spi_init</text>
</a>
</g>
</g>
<!-- Node1&#45;&gt;Node6 -->
<g id="edge5_Node000001_Node000006" class="edge">
<title>Node1&#45;&gt;Node6</title>
<g id="a_edge5_Node000001_Node000006"><a xlink:title=" ">
<path fill="none" stroke="#63b8ff" d="M63.43,-115.61C79.48,-105.17 105.64,-89.21 130,-79 134.31,-77.19 138.84,-75.5 143.44,-73.93"/>
<polygon fill="#63b8ff" stroke="#63b8ff" points="144.29,-77.33 152.75,-70.96 142.16,-70.67 144.29,-77.33"/>
</a>
</g>
</g>
<!-- Node7 -->
<g id="Node000007" class="node">
<title>Node7</title>
<g id="a_Node000007"><a xlink:href="group__tpl0501__interface__driver.html#gaa401a4917ba2c2d5d91c8e5d973e93b0" target="_top" xlink:title="interface spi bus write command">
<polygon fill="white" stroke="#666666" points="252.88,-32 144.62,-32 144.62,0 252.88,0 252.88,-32"/>
<text xml:space="preserve" text-anchor="start" x="152.62" y="-18.5" font-family="Helvetica,sans-Serif" font-size="10.00">tpl0501_interface_spi</text>
<text xml:space="preserve" text-anchor="middle" x="198.75" y="-6.5" font-family="Helvetica,sans-Serif" font-size="10.00">_write_cmd</text>
</a>
</g>
</g>
<!-- Node1&#45;&gt;Node7 -->
<g id="edge6_Node000001_Node000007" class="edge">
<title>Node1&#45;&gt;Node7</title>
<g id="a_edge6_Node000001_Node000007"><a xlink:title=" ">
<path fill="none" stroke="#63b8ff" d="M55.45,-115.66C68.63,-98.04 97.72,-62.07 130,-41 131.85,-39.79 133.77,-38.63 135.73,-37.52"/>
<polygon fill="#63b8ff" stroke="#63b8ff" points="137.21,-40.69 144.53,-33.03 134.03,-34.46 137.21,-40.69"/>
</a>
</g>
</g>
</g>
</svg>
