<?xml version="1.0" encoding="UTF-8" standalone="no"?>
<!DOCTYPE svg PUBLIC "-//W3C//DTD SVG 1.1//EN"
 "http://www.w3.org/Graphics/SVG/1.1/DTD/svg11.dtd">
<!-- Generated by graphviz version 13.1.0 (20250701.0955)
 -->
<!-- Title: tpl0501_basic_write Pages: 1 -->
<svg width="251pt" height="78pt"
 viewBox="0.00 0.00 251.00 78.00" xmlns="http://www.w3.org/2000/svg" xmlns:xlink="http://www.w3.org/1999/xlink">
<g id="graph0" class="graph" transform="scale(1 1) rotate(0) translate(4 74)">
<title>tpl0501_basic_write</title>
<!-- Node1 -->
<g id="Node000001" class="node">
<title>Node1</title>
<g id="a_Node000001"><a xlink:title="basic example write">
<polygon fill="#999999" stroke="#666666" points="102.25,-42 0,-42 0,-22 102.25,-22 102.25,-42"/>
<text xml:space="preserve" text-anchor="middle" x="51.12" y="-28.5" font-family="Helvetica,sans-Serif" font-size="10.00">tpl0501_basic_write</text>
</a>
</g>
</g>
<!-- Node2 -->
<g id="Node000002" class="node">
<title>Node2</title>
<g id="a_Node000002"><a xlink:href="group__tpl0501__base__driver.html#ga8b9f685c1031b6af0ae30167c5a90396" target="_top" xlink:title="convert the percentage to the register raw data">
<polygon fill="white" stroke="#666666" points="242.75,-70 138.25,-70 138.25,-38 242.75,-38 242.75,-70"/>
<text xml:space="preserve" text-anchor="start" x="146.25" y="-56.5" font-family="Helvetica,sans-Serif" font-size="10.00">tpl0501_percentage</text>
<text xml:space="preserve" text-anchor="middle" x="190.5" y="-44.5" font-family="Helvetica,sans-Serif" font-size="10.00">_convert_to_register</text>
</a>
</g>
</g>
<!-- Node1&#45;&gt;Node2 -->
<g id="edge1_Node000001_Node000002" class="edge">
<title>Node1&#45;&gt;Node2</title>
<g id="a_edge1_Node000001_Node000002"><a xlink:title=" ">
<path fill="none" stroke="#63b8ff" d="M102.5,-40.07C110.31,-41.32 118.45,-42.62 126.5,-43.91"/>
<polygon fill="#63b8ff" stroke="#63b8ff" points="125.83,-47.35 136.26,-45.47 126.94,-40.44 125.83,-47.35"/>
</a>
</g>
</g>
<!-- Node3 -->
<g id="Node000003" class="node">
<title>Node3</title>
<g id="a_Node000003"><a xlink:href="group__tpl0501__base__driver.html#gac5b43beb6020550a3c04f3086e9bef14" target="_top" xlink:title="write data">
<polygon fill="white" stroke="#666666" points="227.38,-20 153.62,-20 153.62,0 227.38,0 227.38,-20"/>
<text xml:space="preserve" text-anchor="middle" x="190.5" y="-6.5" font-family="Helvetica,sans-Serif" font-size="10.00">tpl0501_write</text>
</a>
</g>
</g>
<!-- Node1&#45;&gt;Node3 -->
<g id="edge2_Node000001_Node000003" class="edge">
<title>Node1&#45;&gt;Node3</title>
<g id="a_edge2_Node000001_Node000003"><a xlink:title=" ">
<path fill="none" stroke="#63b8ff" d="M102.5,-23.93C115.4,-21.87 129.22,-19.65 141.97,-17.61"/>
<polygon fill="#63b8ff" stroke="#63b8ff" points="142.51,-21.07 151.83,-16.03 141.4,-14.16 142.51,-21.07"/>
</a>
</g>
</g>
</g>
</svg>
